<svg width="65" height="65" viewBox="0 0 65 65" fill="none" xmlns="http://www.w3.org/2000/svg">
<circle cx="32.5" cy="32.5" r="32.5" fill="#3F8AE0"/>
<path d="M44.7969 35.5156C44.1503 35.5156 43.625 36.0409 43.625 36.6875C43.625 37.3341 44.1503 37.8594 44.7969 37.8594C45.4434 37.8594 45.9688 37.3341 45.9688 36.6875C45.9688 36.0409 45.4434 35.5156 44.7969 35.5156Z" fill="white"/>
<path d="M51.8281 19.1094H24.816V22.625C24.816 23.2727 24.2919 23.7969 23.6441 23.7969C22.9964 23.7969 22.4723 23.2727 22.4723 22.625V19.1094H14.1719C13.5241 19.1094 13 19.6335 13 20.2812V27.3125C13 27.9602 13.5241 28.4844 14.1719 28.4844C16.1105 28.4844 17.6875 30.0614 17.6875 32C17.6875 33.9386 16.1105 35.5156 14.1719 35.5156C13.5241 35.5156 13 36.0398 13 36.6875V43.7188C13 44.3665 13.5241 44.8906 14.1719 44.8906H22.375V41.375C22.375 40.7273 22.8991 40.2031 23.5469 40.2031C24.1946 40.2031 24.7188 40.7273 24.7188 41.375V44.8906H51.8281C52.4759 44.8906 53 44.3665 53 43.7188V20.2812C53 19.6335 52.4759 19.1094 51.8281 19.1094ZM24.7188 36.6875C24.7188 37.3352 24.1946 37.8594 23.5469 37.8594C22.8991 37.8594 22.375 37.3352 22.375 36.6875V34.3438C22.375 33.696 22.8991 33.1719 23.5469 33.1719C24.1946 33.1719 24.7188 33.696 24.7188 34.3438V36.6875ZM24.7188 29.6562C24.7188 30.304 24.1946 30.8281 23.5469 30.8281C22.8991 30.8281 22.375 30.304 22.375 29.6562V27.3125C22.375 26.6648 22.8991 26.1406 23.5469 26.1406C24.1946 26.1406 24.7188 26.6648 24.7188 27.3125V29.6562ZM31.9062 27.3125C31.9062 25.3739 33.4833 23.7969 35.4219 23.7969C37.3605 23.7969 38.9375 25.3739 38.9375 27.3125C38.9375 29.2511 37.3605 30.8281 35.4219 30.8281C33.4833 30.8281 31.9062 29.2511 31.9062 27.3125ZM34.7719 40.0063C34.2329 39.6469 34.0875 38.9202 34.4469 38.3812L43.8219 24.3187C44.1801 23.7797 44.9068 23.6355 45.447 23.9937C45.9859 24.353 46.1313 25.0797 45.772 25.6188L36.397 39.6813C36.0434 40.2123 35.3195 40.3692 34.7719 40.0063ZM44.7969 40.2031C42.8583 40.2031 41.2812 38.6261 41.2812 36.6875C41.2812 34.7489 42.8583 33.1719 44.7969 33.1719C46.7355 33.1719 48.3125 34.7489 48.3125 36.6875C48.3125 38.6261 46.7355 40.2031 44.7969 40.2031Z" fill="white"/>
<path d="M35.4219 26.1406C34.7753 26.1406 34.25 26.6659 34.25 27.3125C34.25 27.9591 34.7753 28.4844 35.4219 28.4844C36.0684 28.4844 36.5938 27.9591 36.5938 27.3125C36.5938 26.6659 36.0684 26.1406 35.4219 26.1406Z" fill="white"/>
</svg>
